<svg width="242" height="142" viewBox="0 0 242 142" fill="none" xmlns="http://www.w3.org/2000/svg">
<rect width="242" height="142" rx="6" fill="#EAEAEB"/>
<rect x="47" y="16" width="148" height="19" rx="2" fill="white"/>
<rect x="61" y="20" width="8" height="2" fill="#E7E7E7"/>
<rect x="179" y="20" width="2" height="2" fill="#E7E7E7"/>
<rect x="175" y="20" width="2" height="2" fill="#E7E7E7"/>
<rect x="171" y="20" width="2" height="2" fill="#E7E7E7"/>
<rect x="167" y="20" width="2" height="2" fill="#E7E7E7"/>
<rect x="106" y="20" width="6" height="1" fill="#E7E7E7"/>
<rect x="114" y="20" width="6" height="1" fill="#E7E7E7"/>
<rect x="122" y="20" width="6" height="1" fill="#E7E7E7"/>
<rect x="130" y="20" width="6" height="1" fill="#E7E7E7"/>
<rect x="47" y="39" width="71" height="41" rx="2" fill="white"/>
<rect x="124" y="39" width="71" height="41" rx="2" fill="white"/>
<rect x="47" y="84" width="148" height="21" rx="2" fill="white"/>
<rect x="47" y="109" width="148" height="17" rx="2" fill="white"/>
</svg>
